<svg width="176" height="86" viewBox="0 0 176 86" fill="none" xmlns="http://www.w3.org/2000/svg"><path d="M15.672 79.435C20.921 79.435 24.691 76.332 25.387 71.46H20.95C20.515 73.983 18.572 75.897 15.672 75.897C12.047 75.897 9.55296 72.91 9.55296 68.821C9.55296 64.906 11.902 61.803 15.614 61.803C18.717 61.803 20.747 63.949 20.167 67.284H24.488C25.358 62.151 21.327 58.265 15.556 58.265C9.46596 58.265 5.23196 62.673 5.23196 68.821C5.23196 74.737 9.20496 79.435 15.672 79.435ZM34.9751 64.065C33.0901 64.065 31.6691 65.138 30.9151 66.965V64.5H27.0001V79H30.9151V71.866C30.9151 69.198 31.9591 67.487 33.3801 67.487C34.3371 67.487 34.9461 68.212 34.9461 69.343C34.9461 70.126 34.6561 70.967 34.1051 71.895H38.1941C38.6871 70.909 38.9771 69.72 38.9771 68.56C38.9771 65.863 37.4111 64.065 34.9751 64.065ZM49.3464 64.5V71.808C49.3464 74.331 48.1284 76.071 46.2144 76.071C44.4164 76.071 43.9814 74.447 43.9814 72.649V64.5H40.0374V72.649C40.0374 75.201 40.6464 79.348 44.7064 79.348C46.7074 79.348 48.3604 78.362 49.3464 76.622V79H53.2904V64.5H49.3464ZM57.6085 62.644C58.9425 62.644 59.9575 61.629 59.9575 60.295C59.9575 58.961 58.9425 57.946 57.6085 57.946C56.2745 57.946 55.2595 58.961 55.2595 60.295C55.2595 61.629 56.2745 62.644 57.6085 62.644ZM55.6075 79H59.5515V64.5H55.6075V79ZM67.9966 79.435C71.9116 79.435 74.6666 77.666 74.6666 74.65C74.6666 69.111 65.4736 71.199 65.4736 68.647C65.4736 67.835 66.3436 67.168 67.8226 67.168C69.5916 67.168 70.6936 68.125 70.3456 69.546H74.1736C74.7536 66.124 71.7956 64.065 67.8226 64.065C64.1396 64.065 61.4136 65.863 61.4136 68.85C61.4136 74.36 70.6066 72.417 70.6066 74.882C70.6066 75.752 69.5336 76.332 67.9966 76.332C66.0826 76.332 64.9516 75.433 65.0386 73.983H61.2396C61.1236 77.347 63.7916 79.435 67.9966 79.435ZM86.2294 74.302C85.7654 75.433 84.6924 76.042 83.2424 76.042C81.1544 76.042 79.9654 74.795 79.6754 72.707H89.8544C91.3914 68.009 88.4624 64.065 83.1844 64.065C78.5734 64.065 75.5284 67.139 75.5284 71.75C75.5284 76.361 78.5154 79.435 83.1844 79.435C86.9544 79.435 89.6514 77.434 90.5214 74.302H86.2294ZM83.1554 67.342C85.2144 67.342 86.2294 68.502 86.0554 70.242H79.7334C80.1104 68.357 81.2994 67.342 83.1554 67.342ZM100.971 64.065C98.7962 64.065 97.0852 65.022 96.0122 66.704V58.7H92.0972V79H96.0122V76.825C97.0852 78.478 98.7672 79.435 100.913 79.435C104.799 79.435 107.583 76.361 107.583 71.75C107.583 67.139 104.828 64.065 100.971 64.065ZM99.7532 76.042C97.4912 76.042 96.0122 74.331 96.0122 71.75C96.0122 69.169 97.4912 67.458 99.7532 67.458C101.986 67.458 103.523 69.14 103.523 71.75C103.523 74.331 102.015 76.042 99.7532 76.042ZM116.15 79.435C120.732 79.435 123.777 76.361 123.777 71.75C123.777 67.139 120.732 64.065 116.15 64.065C111.568 64.065 108.523 67.139 108.523 71.75C108.523 76.361 111.568 79.435 116.15 79.435ZM116.15 76.042C114.033 76.042 112.612 74.331 112.612 71.75C112.612 69.14 114.033 67.458 116.15 67.458C118.267 67.458 119.688 69.14 119.688 71.75C119.688 74.331 118.267 76.042 116.15 76.042ZM134.452 64.5V71.808C134.452 74.331 133.234 76.071 131.32 76.071C129.522 76.071 129.087 74.447 129.087 72.649V64.5H125.143V72.649C125.143 75.201 125.752 79.348 129.812 79.348C131.813 79.348 133.466 78.362 134.452 76.622V79H138.396V64.5H134.452ZM149.268 64.065C147.064 64.065 145.353 65.196 144.512 67.081V64.5H140.597V79H144.512V71.866C144.512 69.169 145.875 67.342 147.76 67.342C150.022 67.342 150.022 69.401 150.022 70.764V79H153.966V70.735C153.966 68.734 153.966 64.065 149.268 64.065ZM166.721 58.7V66.472C165.619 64.935 163.966 64.065 161.907 64.065C158.05 64.065 155.324 67.139 155.324 71.75C155.324 76.361 158.079 79.435 161.936 79.435C163.995 79.435 165.648 78.565 166.721 77.057V79H170.665V58.7H166.721ZM163.183 76.042C160.921 76.042 159.413 74.331 159.413 71.75C159.413 69.169 160.921 67.458 163.183 67.458C165.416 67.458 166.924 69.169 166.924 71.75C166.924 74.331 165.416 76.042 163.183 76.042Z" fill="white"></path><path fill-rule="evenodd" clip-rule="evenodd" d="M90.6539 6.31495L90.6503 12.619C97.0213 12.6207 100.208 11.0455 103.394 9.47035C106.58 7.89517 109.767 6.31999 116.138 6.32168L116.141 0.0176011C109.77 0.015921 106.584 1.5911 103.398 3.16628C100.211 4.74146 97.0248 6.31663 90.6539 6.31495ZM90.6538 15.252L90.6503 21.556C97.0212 21.5577 100.208 19.9825 103.394 18.4074C106.58 16.8322 109.767 15.257 116.138 15.2587L116.141 8.95461C109.77 8.95293 106.584 10.5281 103.398 12.1033C100.211 13.6785 97.0248 15.2536 90.6538 15.252ZM103.386 27.3302C100.199 28.9054 97.0131 30.4806 90.6421 30.4789L90.6457 24.1748C97.0166 24.1765 100.203 22.6013 103.389 21.0261C106.576 19.451 109.762 17.8758 116.133 17.8775L116.13 24.1815C109.759 24.1799 106.572 25.755 103.386 27.3302Z" fill="url(#linearLogoWithTitleIcon1)"></path><path fill-rule="evenodd" clip-rule="evenodd" d="M74.8871 6.31495L74.8836 12.619C81.2545 12.6207 84.4409 11.0455 87.6272 9.47035C90.8136 7.89517 94 6.31999 100.371 6.32168L100.374 0.0176011C94.0035 0.015921 90.8172 1.5911 87.6308 3.16628C84.4444 4.74146 81.2581 6.31663 74.8871 6.31495ZM74.8871 15.252L74.8835 21.556C81.2545 21.5577 84.4408 19.9825 87.6272 18.4074C90.8136 16.8322 94 15.257 100.371 15.2587L100.374 8.95461C94.0035 8.95293 90.8171 10.5281 87.6308 12.1033C84.4444 13.6785 81.258 15.2536 74.8871 15.252ZM74.8754 30.4789L74.8789 24.1748C81.2499 24.1765 84.4362 22.6013 87.6226 21.0261C90.809 19.451 93.9953 17.8758 100.366 17.8775L100.363 24.1815C93.9918 24.1799 90.8054 25.755 87.6191 27.3302C84.4327 28.9054 81.2463 30.4806 74.8754 30.4789Z" fill="url(#linearLogoWithTitleIcon2)"></path><path fill-rule="evenodd" clip-rule="evenodd" d="M59.134 6.31593L59.1304 12.62C65.5014 12.6217 68.6878 11.0465 71.8741 9.47133C75.0605 7.89615 78.2469 6.32097 84.6178 6.32265L84.6214 0.0185776C78.2504 0.0168975 75.064 1.59208 71.8777 3.16725C68.6913 4.74243 65.505 6.31761 59.134 6.31593ZM59.134 15.252L59.1304 21.556C65.5014 21.5577 68.6878 19.9825 71.8741 18.4074C75.0605 16.8322 78.2469 15.257 84.6178 15.2587L84.6214 8.95461C78.2504 8.95293 75.064 10.5281 71.8777 12.1033C68.6913 13.6785 65.505 15.2536 59.134 15.252ZM59.1223 30.4789L59.1259 24.1748C65.4968 24.1765 68.6832 22.6013 71.8696 21.0261C75.0559 19.451 78.2423 17.8758 84.6132 17.8775L84.6097 24.1815C78.2387 24.1799 75.0524 25.755 71.866 27.3302C68.6796 28.9054 65.4933 30.4806 59.1223 30.4789Z" fill="url(#linearLogoWithTitleIcon3)"></path><defs><linearGradient id="linearLogoWithTitleIcon1" x1="93.6121" y1="15.4318" x2="116.277" y2="15.4318" gradientUnits="userSpaceOnUse"><stop stop-color="#2F3DBE"></stop><stop offset="1" stop-color="#9766FF"></stop></linearGradient><linearGradient id="linearLogoWithTitleIcon2" x1="74.8891" y1="18.2834" x2="100.51" y2="18.2834" gradientUnits="userSpaceOnUse"><stop stop-color="#5404FF"></stop><stop offset="1" stop-color="#00C2FF"></stop></linearGradient><linearGradient id="linearLogoWithTitleIcon3" x1="59.1223" y1="17.4792" x2="84.7435" y2="17.4791" gradientUnits="userSpaceOnUse"><stop stop-color="#00F0FF"></stop><stop offset="1" stop-color="#00D1FF"></stop></linearGradient></defs></svg>
